<svg width="80" height="45" viewBox="0 0 80 45" fill="none" xmlns="http://www.w3.org/2000/svg">
<g filter="url(#filter0_d)">
<path d="M73.7539 15.1818C52.1004 0.0875425 22.2976 23.7337 4.39062 12.472L5.49236 13.3075C23.3993 24.5692 53.5424 1.15733 75.1959 16.2516L73.7539 15.1818Z" fill="#FFFCFC"/>
</g>
<g filter="url(#filter1_d)">
<path d="M11.9512 30.5443L10.4312 36.2563H9.70323L8.59123 32.5123C8.54857 32.3577 8.5059 32.203 8.46323 32.0483C8.42057 31.8937 8.3859 31.7577 8.35923 31.6403C8.33257 31.5177 8.3139 31.4323 8.30323 31.3843C8.2979 31.4537 8.26857 31.603 8.21523 31.8323C8.16723 32.0563 8.1059 32.291 8.03123 32.5363L6.95123 36.2563H6.22323L4.71123 30.5443H5.46323L6.35123 34.0323C6.41523 34.2777 6.46857 34.515 6.51123 34.7443C6.55923 34.9737 6.59657 35.1897 6.62323 35.3923C6.6499 35.1843 6.6899 34.9577 6.74323 34.7123C6.79657 34.467 6.8579 34.227 6.92723 33.9923L7.93523 30.5443H8.67923L9.72723 34.0163C9.8019 34.2617 9.8659 34.507 9.91923 34.7523C9.97257 34.9923 10.0126 35.2057 10.0392 35.3923C10.0659 35.195 10.1032 34.9817 10.1512 34.7523C10.1992 34.5177 10.2552 34.275 10.3192 34.0243L11.1992 30.5443H11.9512ZM14.2325 31.8883C14.6005 31.8883 14.9152 31.9683 15.1765 32.1283C15.4432 32.2883 15.6458 32.515 15.7845 32.8083C15.9285 33.0963 16.0005 33.435 16.0005 33.8243V34.2483H13.0645C13.0752 34.7337 13.1978 35.1043 13.4325 35.3603C13.6725 35.611 14.0058 35.7363 14.4325 35.7363C14.7045 35.7363 14.9445 35.7123 15.1525 35.6643C15.3658 35.611 15.5845 35.5363 15.8085 35.4403V36.0563C15.5898 36.1523 15.3738 36.2217 15.1605 36.2643C14.9472 36.3123 14.6938 36.3363 14.4005 36.3363C13.9952 36.3363 13.6352 36.2537 13.3205 36.0883C13.0112 35.923 12.7685 35.6777 12.5925 35.3523C12.4218 35.0217 12.3365 34.619 12.3365 34.1443C12.3365 33.675 12.4138 33.2723 12.5685 32.9363C12.7285 32.6003 12.9498 32.3417 13.2325 32.1603C13.5205 31.979 13.8538 31.8883 14.2325 31.8883ZM14.2245 32.4643C13.8885 32.4643 13.6218 32.5737 13.4245 32.7923C13.2325 33.0057 13.1178 33.3043 13.0805 33.6883H15.2645C15.2592 33.3257 15.1738 33.0323 15.0085 32.8083C14.8432 32.579 14.5818 32.4643 14.2245 32.4643ZM23.1705 36.2563L22.4825 34.4883H20.2185L19.5385 36.2563H18.8105L21.0425 30.5203H21.6905L23.9145 36.2563H23.1705ZM22.2665 33.8483L21.6265 32.1203C21.6105 32.0777 21.5839 32.0003 21.5465 31.8883C21.5092 31.7763 21.4719 31.6617 21.4345 31.5443C21.4025 31.4217 21.3759 31.3283 21.3545 31.2643C21.3172 31.4297 21.2745 31.5923 21.2265 31.7523C21.1785 31.907 21.1385 32.0297 21.1065 32.1203L20.4585 33.8483H22.2665ZM26.5999 31.8883C26.6799 31.8883 26.7653 31.8937 26.8559 31.9043C26.9519 31.9097 27.0346 31.9203 27.1039 31.9363L27.0159 32.5843C26.9466 32.5683 26.8693 32.555 26.7839 32.5443C26.7039 32.5337 26.6266 32.5283 26.5519 32.5283C26.3333 32.5283 26.1279 32.5897 25.9359 32.7123C25.7439 32.8297 25.5893 32.9977 25.4719 33.2163C25.3599 33.4297 25.3039 33.6803 25.3039 33.9683V36.2563H24.5999V31.9683H25.1759L25.2559 32.7523H25.2879C25.4266 32.5177 25.6053 32.315 25.8239 32.1443C26.0426 31.9737 26.3013 31.8883 26.5999 31.8883ZM29.4044 31.8883C29.7724 31.8883 30.087 31.9683 30.3484 32.1283C30.615 32.2883 30.8177 32.515 30.9564 32.8083C31.1004 33.0963 31.1724 33.435 31.1724 33.8243V34.2483H28.2364C28.247 34.7337 28.3697 35.1043 28.6044 35.3603C28.8444 35.611 29.1777 35.7363 29.6044 35.7363C29.8764 35.7363 30.1164 35.7123 30.3244 35.6643C30.5377 35.611 30.7564 35.5363 30.9804 35.4403V36.0563C30.7617 36.1523 30.5457 36.2217 30.3324 36.2643C30.119 36.3123 29.8657 36.3363 29.5724 36.3363C29.167 36.3363 28.807 36.2537 28.4924 36.0883C28.183 35.923 27.9404 35.6777 27.7644 35.3523C27.5937 35.0217 27.5084 34.619 27.5084 34.1443C27.5084 33.675 27.5857 33.2723 27.7404 32.9363C27.9004 32.6003 28.1217 32.3417 28.4044 32.1603C28.6924 31.979 29.0257 31.8883 29.4044 31.8883ZM29.3964 32.4643C29.0604 32.4643 28.7937 32.5737 28.5964 32.7923C28.4044 33.0057 28.2897 33.3043 28.2524 33.6883H30.4364C30.431 33.3257 30.3457 33.0323 30.1804 32.8083C30.015 32.579 29.7537 32.4643 29.3964 32.4643ZM36.0944 35.7603C36.2011 35.7603 36.3104 35.7523 36.4224 35.7363C36.5344 35.715 36.6251 35.6937 36.6944 35.6723V36.2083C36.6198 36.2457 36.5131 36.275 36.3744 36.2963C36.2358 36.323 36.1024 36.3363 35.9744 36.3363C35.7504 36.3363 35.5424 36.299 35.3504 36.2243C35.1638 36.1443 35.0118 36.0083 34.8944 35.8163C34.7771 35.6243 34.7184 35.355 34.7184 35.0083V32.5123H34.1104V32.1763L34.7264 31.8963L35.0064 30.9843H35.4224V31.9683H36.6624V32.5123H35.4224V34.9923C35.4224 35.2537 35.4838 35.4483 35.6064 35.5763C35.7344 35.699 35.8971 35.7603 36.0944 35.7603ZM38.257 30.1763V31.9603C38.257 32.1737 38.2437 32.3737 38.217 32.5603H38.265C38.4037 32.3417 38.5904 32.1763 38.825 32.0643C39.065 31.9523 39.3237 31.8963 39.601 31.8963C40.1237 31.8963 40.5157 32.0217 40.777 32.2723C41.0384 32.5177 41.169 32.915 41.169 33.4643V36.2563H40.473V33.5123C40.473 32.8243 40.153 32.4803 39.513 32.4803C39.033 32.4803 38.7024 32.6163 38.521 32.8883C38.345 33.155 38.257 33.539 38.257 34.0403V36.2563H37.553V30.1763H38.257ZM44.1544 31.8883C44.5224 31.8883 44.837 31.9683 45.0984 32.1283C45.365 32.2883 45.5677 32.515 45.7064 32.8083C45.8504 33.0963 45.9224 33.435 45.9224 33.8243V34.2483H42.9864C42.997 34.7337 43.1197 35.1043 43.3544 35.3603C43.5944 35.611 43.9277 35.7363 44.3544 35.7363C44.6264 35.7363 44.8664 35.7123 45.0744 35.6643C45.2877 35.611 45.5064 35.5363 45.7304 35.4403V36.0563C45.5117 36.1523 45.2957 36.2217 45.0824 36.2643C44.869 36.3123 44.6157 36.3363 44.3224 36.3363C43.917 36.3363 43.557 36.2537 43.2424 36.0883C42.933 35.923 42.6904 35.6777 42.5144 35.3523C42.3437 35.0217 42.2584 34.619 42.2584 34.1443C42.2584 33.675 42.3357 33.2723 42.4904 32.9363C42.6504 32.6003 42.8717 32.3417 43.1544 32.1603C43.4424 31.979 43.7757 31.8883 44.1544 31.8883ZM44.1464 32.4643C43.8104 32.4643 43.5437 32.5737 43.3464 32.7923C43.1544 33.0057 43.0397 33.3043 43.0024 33.6883H45.1864C45.181 33.3257 45.0957 33.0323 44.9304 32.8083C44.765 32.579 44.5037 32.4643 44.1464 32.4643ZM50.2284 36.2563H49.5084V30.5443H52.7004V31.1763H50.2284V33.2003H52.5484V33.8323H50.2284V36.2563ZM57.1449 31.9683V36.2563H56.5689L56.4649 35.6883H56.4329C56.2942 35.9123 56.1022 36.0777 55.8569 36.1843C55.6115 36.2857 55.3502 36.3363 55.0729 36.3363C54.5555 36.3363 54.1662 36.2137 53.9049 35.9683C53.6435 35.7177 53.5129 35.3203 53.5129 34.7763V31.9683H54.2249V34.7283C54.2249 35.411 54.5422 35.7523 55.1769 35.7523C55.6515 35.7523 55.9795 35.619 56.1609 35.3523C56.3475 35.0857 56.4409 34.7017 56.4409 34.2003V31.9683H57.1449ZM59.9382 35.7603C60.0448 35.7603 60.1542 35.7523 60.2662 35.7363C60.3782 35.715 60.4688 35.6937 60.5382 35.6723V36.2083C60.4635 36.2457 60.3568 36.275 60.2182 36.2963C60.0795 36.323 59.9462 36.3363 59.8182 36.3363C59.5942 36.3363 59.3862 36.299 59.1942 36.2243C59.0075 36.1443 58.8555 36.0083 58.7382 35.8163C58.6208 35.6243 58.5622 35.355 58.5622 35.0083V32.5123H57.9542V32.1763L58.5702 31.8963L58.8502 30.9843H59.2662V31.9683H60.5062V32.5123H59.2662V34.9923C59.2662 35.2537 59.3275 35.4483 59.4502 35.5763C59.5782 35.699 59.7408 35.7603 59.9382 35.7603ZM64.9808 31.9683V36.2563H64.4048L64.3008 35.6883H64.2688C64.1301 35.9123 63.9381 36.0777 63.6928 36.1843C63.4475 36.2857 63.1861 36.3363 62.9088 36.3363C62.3915 36.3363 62.0021 36.2137 61.7408 35.9683C61.4795 35.7177 61.3488 35.3203 61.3488 34.7763V31.9683H62.0608V34.7283C62.0608 35.411 62.3781 35.7523 63.0128 35.7523C63.4875 35.7523 63.8155 35.619 63.9968 35.3523C64.1835 35.0857 64.2768 34.7017 64.2768 34.2003V31.9683H64.9808ZM68.3421 31.8883C68.4221 31.8883 68.5074 31.8937 68.5981 31.9043C68.6941 31.9097 68.7768 31.9203 68.8461 31.9363L68.7581 32.5843C68.6888 32.5683 68.6114 32.555 68.5261 32.5443C68.4461 32.5337 68.3688 32.5283 68.2941 32.5283C68.0754 32.5283 67.8701 32.5897 67.6781 32.7123C67.4861 32.8297 67.3314 32.9977 67.2141 33.2163C67.1021 33.4297 67.0461 33.6803 67.0461 33.9683V36.2563H66.3421V31.9683H66.9181L66.9981 32.7523H67.0301C67.1688 32.5177 67.3474 32.315 67.5661 32.1443C67.7848 31.9737 68.0434 31.8883 68.3421 31.8883ZM71.1465 31.8883C71.5145 31.8883 71.8292 31.9683 72.0905 32.1283C72.3572 32.2883 72.5599 32.515 72.6985 32.8083C72.8425 33.0963 72.9145 33.435 72.9145 33.8243V34.2483H69.9785C69.9892 34.7337 70.1119 35.1043 70.3465 35.3603C70.5865 35.611 70.9199 35.7363 71.3465 35.7363C71.6185 35.7363 71.8585 35.7123 72.0665 35.6643C72.2799 35.611 72.4985 35.5363 72.7225 35.4403V36.0563C72.5039 36.1523 72.2879 36.2217 72.0745 36.2643C71.8612 36.3123 71.6079 36.3363 71.3145 36.3363C70.9092 36.3363 70.5492 36.2537 70.2345 36.0883C69.9252 35.923 69.6825 35.6777 69.5065 35.3523C69.3359 35.0217 69.2505 34.619 69.2505 34.1443C69.2505 33.675 69.3279 33.2723 69.4825 32.9363C69.6425 32.6003 69.8639 32.3417 70.1465 32.1603C70.4345 31.979 70.7679 31.8883 71.1465 31.8883ZM71.1385 32.4643C70.8025 32.4643 70.5359 32.5737 70.3385 32.7923C70.1465 33.0057 70.0319 33.3043 69.9945 33.6883H72.1785C72.1732 33.3257 72.0879 33.0323 71.9225 32.8083C71.7572 32.579 71.4959 32.4643 71.1385 32.4643Z" fill="#FFFCFC"/>
</g>
<mask id="path-3-inside-1" fill="white">
<path d="M49.2372 10.7484L49.2602 10.7977L49.4173 11.1266L49.4173 11.1266C50.4168 13.22 51.3803 15.2382 52.4244 16.7577C52.9739 17.5572 53.5438 18.2159 54.15 18.674C54.7569 19.1327 55.391 19.3837 56.0683 19.3837C56.7456 19.3837 57.3826 19.1327 57.993 18.674C58.6027 18.2158 59.1768 17.5571 59.729 16.7576C60.8333 15.1588 61.8428 13.0076 62.8763 10.7979L62.9139 10.7184L62.9139 10.7183C64.099 8.2165 65.3662 5.54129 66.9525 3.49833C67.7459 2.47653 68.6212 1.61005 69.6095 1.00199C70.5984 0.39357 71.7048 0.041331 72.9577 0.055212L73.0171 0.0552096C74.0496 0.0551501 75.0507 0.0550925 75.9707 0.257738C76.8973 0.461816 77.7358 0.869777 78.4511 1.67797L78.4615 1.68977L77.0728 6.81185L76.9828 6.682C75.7777 4.94437 74.0311 4.55286 72.9122 4.55286C72.2475 4.55286 71.623 4.79935 71.0241 5.25115C70.426 5.7024 69.8627 6.35175 69.3198 7.14169C68.2342 8.72133 67.2376 10.852 66.2065 13.0568L66.194 13.0835L66.0273 13.4329L66.0272 13.4332C64.8648 15.8707 63.6389 18.4415 62.1256 20.434C61.3326 21.4781 60.4587 22.3662 59.4703 22.9938C58.4813 23.6218 57.3728 23.9918 56.1132 23.9918C54.8592 23.9918 53.7522 23.6251 52.763 23.0022C51.7744 22.3796 50.8988 21.4984 50.1051 20.4617C48.5182 18.3889 47.2506 15.6835 46.0649 13.1529L46.0324 13.0835C44.999 10.8738 43.9894 8.73638 42.8964 7.15132C42.3498 6.35866 41.7841 5.70685 41.1869 5.25383C40.5888 4.80012 39.7913 4.55286 39.1368 4.55286C38.4824 4.55286 37.8728 4.80012 37.2747 5.25383C36.6775 5.70685 36.1118 6.35866 35.5652 7.15132C34.4721 8.73638 33.4626 10.8738 32.4291 13.0835L32.3966 13.1529C31.2109 15.6835 29.9433 18.3889 28.3564 20.4617C27.5627 21.4984 26.6871 22.3796 25.6985 23.0022C24.7093 23.6251 23.6023 23.9918 22.3483 23.9918C21.0888 23.9918 19.9803 23.6218 18.9912 22.9938C18.0028 22.3662 17.1289 21.4781 16.336 20.434C14.8226 18.4415 13.5966 15.8705 12.4342 13.433L12.4342 13.4329L12.2675 13.0835L12.255 13.0568C11.2239 10.852 10.2273 8.72133 9.14173 7.14169C8.59885 6.35175 8.03553 5.7024 7.4374 5.25115C6.83853 4.79935 6.21402 4.55286 5.54939 4.55286C4.4304 4.55286 2.68384 4.94437 1.47875 6.682L1.38869 6.81185L0 1.68977L0.0104451 1.67797C0.725779 0.869777 1.56424 0.461816 2.49079 0.257738C3.41084 0.0550925 4.41194 0.0551501 5.44441 0.0552096L5.50383 0.055212C6.75669 0.041331 7.86316 0.39357 8.85203 1.00199C9.84033 1.61005 10.7156 2.47653 11.509 3.49833C13.0953 5.54128 14.3625 8.21648 15.5476 10.7183L15.5476 10.7184L15.5853 10.7979C16.6187 13.0076 17.6283 15.1588 18.7325 16.7576C19.2847 17.5571 19.8588 18.2158 20.4685 18.674C21.079 19.1327 21.7159 19.3837 22.3933 19.3837C23.0705 19.3837 23.7046 19.1327 24.3116 18.674C24.9178 18.2159 25.4877 17.5572 26.0371 16.7577C27.0812 15.2382 27.8497 13.6287 29.0442 11.1266L29.2013 10.7977L29.2244 10.7484L29.2244 10.7484C30.4111 8.21567 31.6681 5.53295 33.2338 3.48335C34.0169 2.45823 34.8792 1.5887 35.852 0.974933C36.7773 0.391096 37.9436 0.0362401 39.116 0.00262507V0C39.1464 0 39.1768 0.00021963 39.2073 0.000657277C39.2378 0.00021963 39.2682 0 39.2986 0V0.00261559C40.4753 0.0361733 41.6841 0.391041 42.6096 0.974933C43.5824 1.5887 44.4447 2.45823 45.2278 3.48335C46.7934 5.53294 48.0504 8.21565 49.2371 10.7484L49.2372 10.7484Z"/>
</mask>
<path d="M49.2372 10.7484L49.2602 10.7977L49.4173 11.1266L49.4173 11.1266C50.4168 13.22 51.3803 15.2382 52.4244 16.7577C52.9739 17.5572 53.5438 18.2159 54.15 18.674C54.7569 19.1327 55.391 19.3837 56.0683 19.3837C56.7456 19.3837 57.3826 19.1327 57.993 18.674C58.6027 18.2158 59.1768 17.5571 59.729 16.7576C60.8333 15.1588 61.8428 13.0076 62.8763 10.7979L62.9139 10.7184L62.9139 10.7183C64.099 8.2165 65.3662 5.54129 66.9525 3.49833C67.7459 2.47653 68.6212 1.61005 69.6095 1.00199C70.5984 0.39357 71.7048 0.041331 72.9577 0.055212L73.0171 0.0552096C74.0496 0.0551501 75.0507 0.0550925 75.9707 0.257738C76.8973 0.461816 77.7358 0.869777 78.4511 1.67797L78.4615 1.68977L77.0728 6.81185L76.9828 6.682C75.7777 4.94437 74.0311 4.55286 72.9122 4.55286C72.2475 4.55286 71.623 4.79935 71.0241 5.25115C70.426 5.7024 69.8627 6.35175 69.3198 7.14169C68.2342 8.72133 67.2376 10.852 66.2065 13.0568L66.194 13.0835L66.0273 13.4329L66.0272 13.4332C64.8648 15.8707 63.6389 18.4415 62.1256 20.434C61.3326 21.4781 60.4587 22.3662 59.4703 22.9938C58.4813 23.6218 57.3728 23.9918 56.1132 23.9918C54.8592 23.9918 53.7522 23.6251 52.763 23.0022C51.7744 22.3796 50.8988 21.4984 50.1051 20.4617C48.5182 18.3889 47.2506 15.6835 46.0649 13.1529L46.0324 13.0835C44.999 10.8738 43.9894 8.73638 42.8964 7.15132C42.3498 6.35866 41.7841 5.70685 41.1869 5.25383C40.5888 4.80012 39.7913 4.55286 39.1368 4.55286C38.4824 4.55286 37.8728 4.80012 37.2747 5.25383C36.6775 5.70685 36.1118 6.35866 35.5652 7.15132C34.4721 8.73638 33.4626 10.8738 32.4291 13.0835L32.3966 13.1529C31.2109 15.6835 29.9433 18.3889 28.3564 20.4617C27.5627 21.4984 26.6871 22.3796 25.6985 23.0022C24.7093 23.6251 23.6023 23.9918 22.3483 23.9918C21.0888 23.9918 19.9803 23.6218 18.9912 22.9938C18.0028 22.3662 17.1289 21.4781 16.336 20.434C14.8226 18.4415 13.5966 15.8705 12.4342 13.433L12.4342 13.4329L12.2675 13.0835L12.255 13.0568C11.2239 10.852 10.2273 8.72133 9.14173 7.14169C8.59885 6.35175 8.03553 5.7024 7.4374 5.25115C6.83853 4.79935 6.21402 4.55286 5.54939 4.55286C4.4304 4.55286 2.68384 4.94437 1.47875 6.682L1.38869 6.81185L0 1.68977L0.0104451 1.67797C0.725779 0.869777 1.56424 0.461816 2.49079 0.257738C3.41084 0.0550925 4.41194 0.0551501 5.44441 0.0552096L5.50383 0.055212C6.75669 0.041331 7.86316 0.39357 8.85203 1.00199C9.84033 1.61005 10.7156 2.47653 11.509 3.49833C13.0953 5.54128 14.3625 8.21648 15.5476 10.7183L15.5476 10.7184L15.5853 10.7979C16.6187 13.0076 17.6283 15.1588 18.7325 16.7576C19.2847 17.5571 19.8588 18.2158 20.4685 18.674C21.079 19.1327 21.7159 19.3837 22.3933 19.3837C23.0705 19.3837 23.7046 19.1327 24.3116 18.674C24.9178 18.2159 25.4877 17.5572 26.0371 16.7577C27.0812 15.2382 27.8497 13.6287 29.0442 11.1266L29.2013 10.7977L29.2244 10.7484L29.2244 10.7484C30.4111 8.21567 31.6681 5.53295 33.2338 3.48335C34.0169 2.45823 34.8792 1.5887 35.852 0.974933C36.7773 0.391096 37.9436 0.0362401 39.116 0.00262507V0C39.1464 0 39.1768 0.00021963 39.2073 0.000657277C39.2378 0.00021963 39.2682 0 39.2986 0V0.00261559C40.4753 0.0361733 41.6841 0.391041 42.6096 0.974933C43.5824 1.5887 44.4447 2.45823 45.2278 3.48335C46.7934 5.53294 48.0504 8.21565 49.2371 10.7484L49.2372 10.7484Z" fill="white" stroke="#FFFCFC" stroke-width="0.2" stroke-linejoin="round" mask="url(#path-3-inside-1)"/>
<defs>
<filter id="filter0_d" x="0.390625" y="9.97021" width="78.8053" height="15.5228" filterUnits="userSpaceOnUse" color-interpolation-filters="sRGB">
<feFlood flood-opacity="0" result="BackgroundImageFix"/>
<feColorMatrix in="SourceAlpha" type="matrix" values="0 0 0 0 0 0 0 0 0 0 0 0 0 0 0 0 0 0 127 0"/>
<feOffset dy="5"/>
<feGaussianBlur stdDeviation="2"/>
<feColorMatrix type="matrix" values="0 0 0 0 1 0 0 0 0 1 0 0 0 0 1 0 0 0 1 0"/>
<feBlend mode="normal" in2="BackgroundImageFix" result="effect1_dropShadow"/>
<feBlend mode="normal" in="SourceGraphic" in2="effect1_dropShadow" result="shape"/>
</filter>
<filter id="filter1_d" x="0.711426" y="30.1763" width="76.2033" height="14.16" filterUnits="userSpaceOnUse" color-interpolation-filters="sRGB">
<feFlood flood-opacity="0" result="BackgroundImageFix"/>
<feColorMatrix in="SourceAlpha" type="matrix" values="0 0 0 0 0 0 0 0 0 0 0 0 0 0 0 0 0 0 127 0"/>
<feOffset dy="4"/>
<feGaussianBlur stdDeviation="2"/>
<feColorMatrix type="matrix" values="0 0 0 0 1 0 0 0 0 1 0 0 0 0 1 0 0 0 0.25 0"/>
<feBlend mode="normal" in2="BackgroundImageFix" result="effect1_dropShadow"/>
<feBlend mode="normal" in="SourceGraphic" in2="effect1_dropShadow" result="shape"/>
</filter>
</defs>
</svg>
