<?xml version="1.0" encoding="UTF-8"?>
<svg xmlns="http://www.w3.org/2000/svg" xmlns:xlink="http://www.w3.org/1999/xlink" width="20pt" height="20pt"
     viewBox="0 0 25 25" version="1.1"
     fill="rgba(255, 255, 255, .8)">
<g>
<path style=" stroke:none;fill-rule:nonzero;fill:rgb(255, 255, 255, .8);fill-opacity:1;" d="M 5 7.503906 C 5.921875 7.503906 6.707031 7.175781 7.359375 6.527344 C 8.011719 5.875 8.335938 5.089844 8.335938 4.167969 C 8.335938 3.246094 8.011719 2.460938 7.359375 1.808594 C 6.707031 1.160156 5.921875 0.832031 5 0.832031 C 4.082031 0.832031 3.296875 1.160156 2.644531 1.808594 C 1.992188 2.460938 1.667969 3.246094 1.667969 4.167969 C 1.667969 5.089844 1.992188 5.875 2.644531 6.527344 C 3.296875 7.175781 4.082031 7.503906 5 7.503906 Z M 5 7.503906 "/>
<path style=" stroke:none;fill-rule:nonzero;fill:rgb(255, 255, 255, .8);fill-opacity:1;" d="M 8.96875 12.707031 C 9.945312 13.683594 11.121094 14.171875 12.503906 14.171875 C 13.882812 14.171875 15.0625 13.683594 16.039062 12.707031 C 17.015625 11.730469 17.503906 10.550781 17.503906 9.167969 C 17.503906 7.789062 17.015625 6.609375 16.039062 5.632812 C 15.0625 4.65625 13.882812 4.167969 12.503906 4.167969 C 11.121094 4.167969 9.945312 4.65625 8.96875 5.632812 C 7.992188 6.609375 7.503906 7.789062 7.503906 9.167969 C 7.503906 10.550781 7.992188 11.730469 8.96875 12.707031 Z M 8.96875 12.707031 "/>
<path style=" stroke:none;fill-rule:nonzero;fill:rgb(255, 255, 255, .8);fill-opacity:1;" d="M 20.007812 7.503906 C 20.925781 7.503906 21.710938 7.175781 22.363281 6.527344 C 23.015625 5.875 23.339844 5.089844 23.339844 4.167969 C 23.339844 3.246094 23.015625 2.460938 22.363281 1.808594 C 21.710938 1.160156 20.925781 0.832031 20.007812 0.832031 C 19.085938 0.832031 18.300781 1.160156 17.648438 1.808594 C 16.996094 2.460938 16.671875 3.246094 16.671875 4.167969 C 16.671875 5.089844 16.996094 5.875 17.648438 6.527344 C 18.300781 7.175781 19.085938 7.503906 20.007812 7.503906 Z M 20.007812 7.503906 "/>
<path style=" stroke:none;fill-rule:nonzero;fill:rgb(255, 255, 255, .8);fill-opacity:1;" d="M 23.390625 7.503906 C 23.339844 7.503906 23.152344 7.59375 22.824219 7.777344 C 22.5 7.957031 22.078125 8.144531 21.554688 8.328125 C 21.035156 8.515625 20.519531 8.609375 20.007812 8.609375 C 19.425781 8.609375 18.847656 8.511719 18.273438 8.308594 C 18.316406 8.632812 18.339844 8.917969 18.339844 9.167969 C 18.339844 10.375 17.988281 11.488281 17.285156 12.503906 C 18.691406 12.546875 19.839844 13.101562 20.734375 14.171875 L 22.480469 14.171875 C 23.191406 14.171875 23.792969 13.996094 24.277344 13.644531 C 24.765625 13.292969 25.007812 12.777344 25.007812 12.101562 C 25.007812 9.035156 24.46875 7.503906 23.390625 7.503906 Z M 23.390625 7.503906 "/>
<path style=" stroke:none;fill-rule:nonzero;fill:rgb(255, 255, 255, .8);fill-opacity:1;" d="M 21.445312 18.03125 C 21.355469 17.523438 21.238281 17.054688 21.101562 16.621094 C 20.960938 16.183594 20.773438 15.761719 20.539062 15.351562 C 20.304688 14.9375 20.035156 14.585938 19.734375 14.292969 C 19.429688 14.003906 19.058594 13.773438 18.621094 13.597656 C 18.179688 13.425781 17.695312 13.335938 17.167969 13.335938 C 17.082031 13.335938 16.894531 13.429688 16.605469 13.617188 C 16.320312 13.804688 16.003906 14.011719 15.65625 14.242188 C 15.308594 14.472656 14.84375 14.679688 14.261719 14.867188 C 13.679688 15.054688 13.09375 15.148438 12.503906 15.148438 C 11.914062 15.148438 11.328125 15.054688 10.746094 14.867188 C 10.164062 14.679688 9.699219 14.472656 9.351562 14.242188 C 9.003906 14.011719 8.6875 13.804688 8.402344 13.617188 C 8.113281 13.429688 7.929688 13.335938 7.839844 13.335938 C 7.3125 13.335938 6.828125 13.425781 6.390625 13.597656 C 5.949219 13.773438 5.578125 14.003906 5.273438 14.292969 C 4.972656 14.585938 4.703125 14.9375 4.46875 15.351562 C 4.234375 15.761719 4.046875 16.183594 3.90625 16.621094 C 3.769531 17.054688 3.652344 17.523438 3.5625 18.03125 C 3.472656 18.542969 3.410156 19.015625 3.378906 19.453125 C 3.347656 19.890625 3.335938 20.339844 3.335938 20.800781 C 3.335938 21.84375 3.652344 22.664062 4.285156 23.269531 C 4.917969 23.871094 5.761719 24.175781 6.8125 24.175781 L 18.195312 24.175781 C 19.246094 24.175781 20.089844 23.871094 20.722656 23.269531 C 21.355469 22.664062 21.671875 21.84375 21.671875 20.800781 C 21.671875 20.339844 21.660156 19.890625 21.628906 19.453125 C 21.597656 19.015625 21.535156 18.539062 21.445312 18.03125 Z M 21.445312 18.03125 "/>
<path style=" stroke:none;fill-rule:nonzero;fill:rgb(255, 255, 255, .8);fill-opacity:1;" d="M 7.722656 12.503906 C 7.019531 11.488281 6.667969 10.375 6.667969 9.167969 C 6.667969 8.917969 6.691406 8.632812 6.734375 8.308594 C 6.160156 8.507812 5.582031 8.609375 5 8.609375 C 4.488281 8.609375 3.972656 8.515625 3.453125 8.328125 C 2.929688 8.144531 2.507812 7.957031 2.183594 7.777344 C 1.855469 7.59375 1.667969 7.503906 1.613281 7.503906 C 0.539062 7.503906 0 9.035156 0 12.101562 C 0 12.777344 0.242188 13.292969 0.730469 13.644531 C 1.214844 13.996094 1.816406 14.171875 2.527344 14.171875 L 4.273438 14.171875 C 5.167969 13.101562 6.316406 12.546875 7.722656 12.503906 Z M 7.722656 12.503906 "/>
</g>
</svg>
