<svg width="20" height="19" viewBox="0 0 20 19" fill="none" xmlns="http://www.w3.org/2000/svg">
<path d="M0 0V19H19.5028V0H0ZM18.2964 17.8247H1.20636V1.17526H18.2964V17.8247Z" fill="#777777"/>
<path d="M12.8891 3.33173H6.61371C4.85197 3.33173 3.41882 4.72793 3.41882 6.44425V12.5578C3.41882 14.2744 4.85197 15.6704 6.61371 15.6704H12.8891C14.651 15.6704 16.084 14.2744 16.084 12.5578V6.44425C16.084 4.72793 14.651 3.33173 12.8891 3.33173ZM14.7058 12.5579C14.7058 13.5338 13.8908 14.3278 12.8891 14.3278H6.61371C5.61218 14.3278 4.79719 13.5338 4.79719 12.5579V6.44425C4.79719 5.46854 5.61218 4.67456 6.61371 4.67456H12.8891C13.8908 4.67456 14.7058 5.46849 14.7058 6.44425V12.5579Z" fill="#777777"/>
<path d="M13.1182 6.98069C12.6924 6.98069 12.3462 6.64339 12.3462 6.22882C12.3462 5.8142 12.6924 5.4769 13.1182 5.4769C13.5438 5.4769 13.89 5.8142 13.89 6.22882C13.89 6.64339 13.5438 6.98069 13.1182 6.98069Z" fill="#777777"/>
<path d="M9.75123 6.32346C7.9528 6.32346 6.48944 7.74909 6.48944 9.50116C6.48944 11.2534 7.9528 12.6791 9.75123 12.6791C11.5499 12.6791 13.0132 11.2534 13.0132 9.50116C13.0132 7.74914 11.5499 6.32346 9.75123 6.32346ZM9.75123 11.3365C8.71301 11.3365 7.86755 10.5131 7.86755 9.50121C7.86755 8.48975 8.71301 7.66648 9.75123 7.66648C10.7899 7.66648 11.6347 8.48975 11.6347 9.50121C11.6347 10.513 10.7899 11.3365 9.75123 11.3365Z" fill="#777777"/>
</svg>
