<svg width="20" height="19" viewBox="0 0 20 19" fill="none" xmlns="http://www.w3.org/2000/svg">
<path d="M3.41986 13.3765C4.57052 14.095 5.93723 14.5141 7.40565 14.5141C12.1883 14.5141 14.8036 10.6564 14.8036 7.31068C14.8036 7.20103 14.8011 7.09181 14.7961 6.98318C15.3042 6.62625 15.7451 6.18036 16.0936 5.67265C15.6273 5.87401 15.1262 6.01018 14.6002 6.07137C15.1371 5.75797 15.5494 5.26193 15.7435 4.6707C15.241 4.96075 14.6846 5.17155 14.0924 5.28501C13.6181 4.79296 12.9423 4.4856 12.1944 4.4856C10.7585 4.4856 9.59423 5.61913 9.59423 7.01722C9.59423 7.21564 9.61732 7.40885 9.6617 7.59423C7.50072 7.48854 5.58478 6.48071 4.3024 4.94888C4.07853 5.32289 3.95031 5.75773 3.95031 6.22176C3.95031 7.10003 4.40922 7.875 5.10696 8.329C4.68068 8.31584 4.27974 8.20188 3.92926 8.01231C3.92902 8.02293 3.92902 8.0335 3.92902 8.0442C3.92902 9.27081 4.82536 10.294 6.0148 10.5267C5.79661 10.5844 5.56687 10.6155 5.32973 10.6155C5.1622 10.6155 4.99929 10.5996 4.84045 10.5699C5.17137 11.5758 6.13168 12.3078 7.2695 12.3281C6.37956 13.0073 5.25844 13.412 4.04023 13.412C3.83021 13.4121 3.62328 13.4001 3.41986 13.3765Z" fill="#777"/>
<path d="M0 0V19H19.5135V0H0ZM18.3065 17.8247H1.20702V1.17526H18.3065V17.8247Z" fill="#777"/>
</svg>
