<svg width="22" height="19" viewBox="0 0 22 19" fill="none" xmlns="http://www.w3.org/2000/svg">
<rect width="16" height="16" transform="translate(3)" fill="#3F426B"/>
<g filter="url(#filter0_d)">
<path d="M17.7216 9.06251C13.6931 4.02936 8.14841 11.9141 4.81689 8.15893L5.02187 8.43751C8.35338 12.1927 13.9614 4.38607 17.9899 9.41923L17.7216 9.06251Z" fill="#FFFCFC"/>
</g>
<mask id="path-2-inside-1" fill="white">
<path d="M13.1604 7.58403L13.1647 7.60045L13.1939 7.71012L13.1939 7.71017C13.3798 8.4082 13.5591 9.08114 13.7534 9.5878C13.8556 9.85442 13.9616 10.074 14.0744 10.2268C14.1873 10.3798 14.3053 10.4634 14.4313 10.4634C14.5573 10.4634 14.6758 10.3797 14.7894 10.2268C14.9028 10.074 15.0096 9.85438 15.1123 9.58778C15.3178 9.05465 15.5056 8.33736 15.6979 7.60052L15.7049 7.57401C15.9254 6.73978 16.1611 5.84773 16.4562 5.16651C16.6039 4.82579 16.7667 4.53687 16.9506 4.33411C17.1345 4.13123 17.3404 4.01378 17.5735 4.01841L17.5845 4.01841C17.7766 4.01839 17.9629 4.01837 18.134 4.08594C18.3064 4.15399 18.4624 4.29002 18.5955 4.55952L18.5974 4.56345L18.3391 6.27139L18.3223 6.2281C18.0981 5.64869 17.7732 5.51814 17.565 5.51814C17.4414 5.51814 17.3252 5.60033 17.2137 5.75098C17.1025 5.90145 16.9977 6.11798 16.8967 6.38138C16.6947 6.9081 16.5093 7.61858 16.3174 8.35375L16.3151 8.36265L16.2841 8.47918L16.2841 8.47926C16.0678 9.29202 15.8397 10.1493 15.5582 10.8137C15.4107 11.1618 15.2481 11.458 15.0642 11.6672C14.8802 11.8766 14.674 12 14.4396 12C14.2063 12 14.0004 11.8777 13.8163 11.67C13.6324 11.4624 13.4695 11.1686 13.3219 10.8229C13.0266 10.1317 12.7908 9.22963 12.5702 8.38579L12.5641 8.36266C12.3719 7.62584 12.1841 6.91312 11.9807 6.38459C11.879 6.12028 11.7738 5.90294 11.6626 5.75188C11.5514 5.60059 11.403 5.51814 11.2812 5.51814C11.1595 5.51814 11.0461 5.60059 10.9348 5.75188C10.8237 5.90294 10.7184 6.12028 10.6168 6.38459C10.4134 6.91312 10.2256 7.62584 10.0333 8.36266L10.0273 8.38579C9.80666 9.22963 9.57083 10.1317 9.27559 10.8229C9.12793 11.1686 8.96503 11.4624 8.7811 11.67C8.59706 11.8777 8.39111 12 8.15781 12C7.92348 12 7.71725 11.8766 7.53324 11.6672C7.34935 11.458 7.18677 11.1618 7.03924 10.8137C6.75769 10.1493 6.52959 9.29198 6.31334 8.47919L6.31333 8.47918L6.28232 8.36265L6.28 8.35375C6.08816 7.61858 5.90275 6.9081 5.70078 6.38138C5.59978 6.11798 5.49498 5.90145 5.3837 5.75098C5.27228 5.60033 5.15609 5.51814 5.03244 5.51814C4.82426 5.51814 4.49932 5.64869 4.27511 6.2281L4.25836 6.27139L4 4.56345L4.00194 4.55952C4.13503 4.29002 4.29102 4.15399 4.4634 4.08594C4.63457 4.01837 4.82082 4.01839 5.01291 4.01841L5.02397 4.01841C5.25705 4.01378 5.46291 4.13123 5.64688 4.33411C5.83075 4.53687 5.9936 4.82579 6.1412 5.16651C6.43633 5.84773 6.67208 6.73976 6.89257 7.57399L6.89257 7.57401L6.89958 7.60052C7.09185 8.33736 7.27967 9.05465 7.48511 9.58778C7.58784 9.85438 7.69465 10.074 7.80808 10.2268C7.92166 10.3797 8.04016 10.4634 8.16617 10.4634C8.29217 10.4634 8.41014 10.3798 8.52306 10.2268C8.63585 10.074 8.74188 9.85442 8.84409 9.5878C9.03835 9.08113 9.18131 8.54444 9.40356 7.71012L9.43278 7.60045L9.43708 7.58403L9.43708 7.58402C9.65786 6.73949 9.89172 5.84495 10.183 5.16151C10.3287 4.81969 10.4891 4.52975 10.6701 4.32509C10.8423 4.13041 11.0593 4.01208 11.2774 4.00088V4C11.283 4 11.2887 4.00007 11.2944 4.00022C11.3 4.00007 11.3057 4 11.3113 4V4.00087C11.5303 4.01206 11.7552 4.13039 11.9273 4.32509C12.1083 4.52975 12.2687 4.81969 12.4144 5.16151C12.7057 5.84495 12.9396 6.7395 13.1604 7.58403Z"/>
</mask>
<path d="M13.1604 7.58403L13.1647 7.60045L13.1939 7.71012L13.1939 7.71017C13.3798 8.4082 13.5591 9.08114 13.7534 9.5878C13.8556 9.85442 13.9616 10.074 14.0744 10.2268C14.1873 10.3798 14.3053 10.4634 14.4313 10.4634C14.5573 10.4634 14.6758 10.3797 14.7894 10.2268C14.9028 10.074 15.0096 9.85438 15.1123 9.58778C15.3178 9.05465 15.5056 8.33736 15.6979 7.60052L15.7049 7.57401C15.9254 6.73978 16.1611 5.84773 16.4562 5.16651C16.6039 4.82579 16.7667 4.53687 16.9506 4.33411C17.1345 4.13123 17.3404 4.01378 17.5735 4.01841L17.5845 4.01841C17.7766 4.01839 17.9629 4.01837 18.134 4.08594C18.3064 4.15399 18.4624 4.29002 18.5955 4.55952L18.5974 4.56345L18.3391 6.27139L18.3223 6.2281C18.0981 5.64869 17.7732 5.51814 17.565 5.51814C17.4414 5.51814 17.3252 5.60033 17.2137 5.75098C17.1025 5.90145 16.9977 6.11798 16.8967 6.38138C16.6947 6.9081 16.5093 7.61858 16.3174 8.35375L16.3151 8.36265L16.2841 8.47918L16.2841 8.47926C16.0678 9.29202 15.8397 10.1493 15.5582 10.8137C15.4107 11.1618 15.2481 11.458 15.0642 11.6672C14.8802 11.8766 14.674 12 14.4396 12C14.2063 12 14.0004 11.8777 13.8163 11.67C13.6324 11.4624 13.4695 11.1686 13.3219 10.8229C13.0266 10.1317 12.7908 9.22963 12.5702 8.38579L12.5641 8.36266C12.3719 7.62584 12.1841 6.91312 11.9807 6.38459C11.879 6.12028 11.7738 5.90294 11.6626 5.75188C11.5514 5.60059 11.403 5.51814 11.2812 5.51814C11.1595 5.51814 11.0461 5.60059 10.9348 5.75188C10.8237 5.90294 10.7184 6.12028 10.6168 6.38459C10.4134 6.91312 10.2256 7.62584 10.0333 8.36266L10.0273 8.38579C9.80666 9.22963 9.57083 10.1317 9.27559 10.8229C9.12793 11.1686 8.96503 11.4624 8.7811 11.67C8.59706 11.8777 8.39111 12 8.15781 12C7.92348 12 7.71725 11.8766 7.53324 11.6672C7.34935 11.458 7.18677 11.1618 7.03924 10.8137C6.75769 10.1493 6.52959 9.29198 6.31334 8.47919L6.31333 8.47918L6.28232 8.36265L6.28 8.35375C6.08816 7.61858 5.90275 6.9081 5.70078 6.38138C5.59978 6.11798 5.49498 5.90145 5.3837 5.75098C5.27228 5.60033 5.15609 5.51814 5.03244 5.51814C4.82426 5.51814 4.49932 5.64869 4.27511 6.2281L4.25836 6.27139L4 4.56345L4.00194 4.55952C4.13503 4.29002 4.29102 4.15399 4.4634 4.08594C4.63457 4.01837 4.82082 4.01839 5.01291 4.01841L5.02397 4.01841C5.25705 4.01378 5.46291 4.13123 5.64688 4.33411C5.83075 4.53687 5.9936 4.82579 6.1412 5.16651C6.43633 5.84773 6.67208 6.73976 6.89257 7.57399L6.89257 7.57401L6.89958 7.60052C7.09185 8.33736 7.27967 9.05465 7.48511 9.58778C7.58784 9.85438 7.69465 10.074 7.80808 10.2268C7.92166 10.3797 8.04016 10.4634 8.16617 10.4634C8.29217 10.4634 8.41014 10.3798 8.52306 10.2268C8.63585 10.074 8.74188 9.85442 8.84409 9.5878C9.03835 9.08113 9.18131 8.54444 9.40356 7.71012L9.43278 7.60045L9.43708 7.58403L9.43708 7.58402C9.65786 6.73949 9.89172 5.84495 10.183 5.16151C10.3287 4.81969 10.4891 4.52975 10.6701 4.32509C10.8423 4.13041 11.0593 4.01208 11.2774 4.00088V4C11.283 4 11.2887 4.00007 11.2944 4.00022C11.3 4.00007 11.3057 4 11.3113 4V4.00087C11.5303 4.01206 11.7552 4.13039 11.9273 4.32509C12.1083 4.52975 12.2687 4.81969 12.4144 5.16151C12.7057 5.84495 12.9396 6.7395 13.1604 7.58403Z" fill="white" stroke="#FFFCFC" stroke-width="0.2" stroke-linejoin="round" mask="url(#path-2-inside-1)"/>
<defs>
<filter id="filter0_d" x="0.816895" y="7.32471" width="21.173" height="11.175" filterUnits="userSpaceOnUse" color-interpolation-filters="sRGB">
<feFlood flood-opacity="0" result="BackgroundImageFix"/>
<feColorMatrix in="SourceAlpha" type="matrix" values="0 0 0 0 0 0 0 0 0 0 0 0 0 0 0 0 0 0 127 0"/>
<feOffset dy="5"/>
<feGaussianBlur stdDeviation="2"/>
<feColorMatrix type="matrix" values="0 0 0 0 1 0 0 0 0 1 0 0 0 0 1 0 0 0 1 0"/>
<feBlend mode="normal" in2="BackgroundImageFix" result="effect1_dropShadow"/>
<feBlend mode="normal" in="SourceGraphic" in2="effect1_dropShadow" result="shape"/>
</filter>
</defs>
</svg>
